<svg id="Layer_1" data-name="Layer 1" xmlns="http://www.w3.org/2000/svg" xmlns:xlink="http://www.w3.org/1999/xlink" viewBox="0 0 512 512"><defs><style>.cls-1{fill:url(#linear-gradient);}</style><linearGradient id="linear-gradient" x1="7.54" y1="256" x2="504.46" y2="256" gradientUnits="userSpaceOnUse"><stop offset="0" stop-color="#915bd1"/><stop offset="1" stop-color="#5d309e"/></linearGradient></defs><path class="cls-1" d="M489.59,254.8H468.44a38.42,38.42,0,0,0-38.36,38.38V316.4a8.62,8.62,0,0,1-17.24,0v-137a38.37,38.37,0,1,0-76.74,0V377.24a8.63,8.63,0,0,1-17.25,0v-141a38.5,38.5,0,0,0-77,0v66.82a8.63,8.63,0,0,1-17.25,0V134.74a38.37,38.37,0,0,0-76.74,0v214a8.62,8.62,0,0,1-17.24,0V233.75a38.37,38.37,0,1,0-76.74,0v8.44a8.63,8.63,0,0,1-8.62,8.62H22.41a14.88,14.88,0,0,0,0,29.76H45.27a38.42,38.42,0,0,0,38.36-38.38v-8.44a8.62,8.62,0,0,1,17.24,0v115a38.37,38.37,0,1,0,76.74,0v-214a8.63,8.63,0,0,1,17.25,0V303.09a38.38,38.38,0,1,0,76.75,0V236.27a8.75,8.75,0,0,1,17.49,0v141a38.37,38.37,0,1,0,76.74,0V179.37a8.62,8.62,0,1,1,17.24,0v137a38.37,38.37,0,1,0,76.74,0V293.18a8.63,8.63,0,0,1,8.62-8.62h21.15a14.88,14.88,0,0,0,0-29.76Z"/></svg>