<?xml version="1.0" encoding="UTF-8"?>
<svg width="256" height="256" version="1.1" viewBox="0 0 256 256" xmlns="http://www.w3.org/2000/svg">
 <desc>Created with Fabric.js 1.7.22</desc>
 <path d="m184.22 33.336a31.372 31.372 0 0 1-31.372 31.372 31.372 31.372 0 0 1-31.372-31.372 31.372 31.372 0 0 1 31.372-31.372 31.372 31.372 0 0 1 31.372 31.372zm-44.782 168.85 16.177-61.506 11.724-42.704c9.7944-45.317-91.597-6.8312-106.44 4.7474l1.1903 13.592c13.511-9.5087 64.673-21.689 54.473 11.973l-4.5765 17.183-23.328 87.024c-9.7944 45.317 91.597 6.8312 106.44-4.7474l-1.1903-13.592c-13.508 9.5115-64.67 21.692-54.47-11.971z" stroke-miterlimit="10" stroke-width="2.8008"/>
</svg>
