<svg id="Layer_1" data-name="Layer 1" xmlns="http://www.w3.org/2000/svg" xmlns:xlink="http://www.w3.org/1999/xlink" viewBox="0 0 512 512"><defs><style>.cls-1{fill:url(#linear-gradient);}</style><linearGradient id="linear-gradient" y1="256" x2="512" y2="256" gradientUnits="userSpaceOnUse"><stop offset="0" stop-color="#28adf7"/><stop offset="1" stop-color="#0b7bd6"/></linearGradient></defs><path class="cls-1" d="M369.15,311.24l-23.27-8.73a2.56,2.56,0,0,1-1.56-2.74l10.46-23.06a17.64,17.64,0,0,0-3.53-19.83l-13.6-13.59a17.7,17.7,0,0,0-12.46-5.16,17.08,17.08,0,0,0-7.27,1.6L294,250.27l-1.37-1-.37-.14-8.94-23.78A17.69,17.69,0,0,0,266.82,214H247.58a17.7,17.7,0,0,0-16.48,11.42l-8.75,23.31a2.72,2.72,0,0,1-2.69,1.54l-23.08-10.46a17.33,17.33,0,0,0-7.37-1.62,17.76,17.76,0,0,0-12.46,5.14l-13.59,13.58a17.62,17.62,0,0,0-3.58,19.76l10.31,22.67a2.5,2.5,0,0,1-.84,3l-23.78,8.93a17.71,17.71,0,0,0-11.45,16.5V347a17.68,17.68,0,0,0,11.43,16.45l23.3,8.75a2.59,2.59,0,0,1,1.54,2.72L159.61,398a17.66,17.66,0,0,0,3.54,19.83l13.63,13.64a17.81,17.81,0,0,0,12.44,5.11,17.2,17.2,0,0,0,7.27-1.58l23.93-10.56,1.38,1,.36.14,8.94,23.78a17.66,17.66,0,0,0,16.49,11.44h19.24a17.71,17.71,0,0,0,16.48-11.42L292,426a2.84,2.84,0,0,1,2.74-1.57l23.08,10.49a17.57,17.57,0,0,0,7.35,1.61,17.78,17.78,0,0,0,12.45-5.14l13.6-13.6A17.61,17.61,0,0,0,354.82,398l-10.31-22.67a2.5,2.5,0,0,1,.85-3l23.78-8.93a17.7,17.7,0,0,0,11.44-16.5V327.69A17.67,17.67,0,0,0,369.15,311.24Zm-116,123.86-7-18.72a28.48,28.48,0,0,0-26-17.59A27.46,27.46,0,0,0,209,401.13L191,409.35l-5.76-5.75L193.62,385c5.71-14.11-1.13-30.47-15.56-36.59l-18.62-7v-8.14l19.08-7.17a28.3,28.3,0,0,0,14.89-36.91l-8.23-18.09,5.77-5.75,18.57,8.4A27.76,27.76,0,0,0,220,275.8a28.33,28.33,0,0,0,26.14-17.61l7-18.62,8.15,0,7,18.7a26.79,26.79,0,0,0,15.05,15.3,27.32,27.32,0,0,0,22,0l18.1-8.22,5.75,5.75-8.43,18.61c-5.71,14.11,1.13,30.47,15.57,36.59l18.61,7v8.14l-19.07,7.18A28.27,28.27,0,0,0,321,385.49l8.22,18.11-5.76,5.75-18.59-8.42a27.56,27.56,0,0,0-10.45-2.05,28.4,28.4,0,0,0-26.16,17.61l-7,18.61Zm55.34-97.77A51.27,51.27,0,1,0,257.2,388.6,51.33,51.33,0,0,0,308.47,337.33ZM257.2,311.68a25.66,25.66,0,1,1-25.65,25.65A25.68,25.68,0,0,1,257.2,311.68ZM512,268.83a95.06,95.06,0,0,1-94.95,94.95H401.43V327.72h15.62a58.9,58.9,0,0,0,14.57-116l-14.45-3.67.89-14.88c.12-2,.19-4.06.19-6.11a99.76,99.76,0,0,0-186.91-48.55l-9.06,16.2-15.94-9.52a69.73,69.73,0,0,0-104.69,50l-1.89,13.39-13.39,1.92A58.89,58.89,0,0,0,95,327.72h15.62v36.06H95A95.06,95.06,0,0,1,0,268.83c0-42.47,28.68-79.61,68.51-91.2,12.26-45.41,54.13-78.26,102.16-78.26a106.17,106.17,0,0,1,38.46,7.21A136,136,0,0,1,318.5,51.29c73,0,132.71,57.86,135.69,130.14A94.86,94.86,0,0,1,512,268.83Z"/></svg>